<mxfile host="app.diagrams.net" modified="2021-04-27T01:12:45.560Z" agent="5.0 (Windows NT 10.0; Win64; x64) AppleWebKit/537.36 (KHTML, like Gecko) Chrome/88.0.4324.190 Safari/537.36" etag="Mdg36VzQ8Tojnm3frkOr" version="14.6.6" type="github">
  <diagram id="m-lG-mxEGULCPplkI1g4" name="第 1 页">
    <mxGraphModel dx="4024" dy="1177" grid="1" gridSize="10" guides="1" tooltips="1" connect="1" arrows="1" fold="1" page="1" pageScale="1" pageWidth="827" pageHeight="1169" math="0" shadow="0">
      <root>
        <mxCell id="0" />
        <mxCell id="1" parent="0" />
        <mxCell id="yPmtyfdiCLfHRMUGOkqY-1" value="" style="edgeStyle=orthogonalEdgeStyle;rounded=0;orthogonalLoop=1;jettySize=auto;html=1;" edge="1" parent="1" source="yPmtyfdiCLfHRMUGOkqY-2" target="yPmtyfdiCLfHRMUGOkqY-5">
          <mxGeometry relative="1" as="geometry" />
        </mxCell>
        <mxCell id="yPmtyfdiCLfHRMUGOkqY-2" value="每天零点" style="strokeWidth=2;html=1;shape=mxgraph.flowchart.terminator;whiteSpace=wrap;" vertex="1" parent="1">
          <mxGeometry x="210" y="50" width="100" height="60" as="geometry" />
        </mxCell>
        <mxCell id="yPmtyfdiCLfHRMUGOkqY-3" value="" style="edgeStyle=orthogonalEdgeStyle;rounded=0;orthogonalLoop=1;jettySize=auto;html=1;exitX=1;exitY=0.5;exitDx=0;exitDy=0;exitPerimeter=0;" edge="1" parent="1" source="yPmtyfdiCLfHRMUGOkqY-5" target="yPmtyfdiCLfHRMUGOkqY-7">
          <mxGeometry relative="1" as="geometry" />
        </mxCell>
        <mxCell id="yPmtyfdiCLfHRMUGOkqY-4" value="" style="edgeStyle=orthogonalEdgeStyle;rounded=0;orthogonalLoop=1;jettySize=auto;html=1;" edge="1" parent="1" source="yPmtyfdiCLfHRMUGOkqY-5" target="yPmtyfdiCLfHRMUGOkqY-9">
          <mxGeometry relative="1" as="geometry">
            <Array as="points">
              <mxPoint x="270" y="200" />
              <mxPoint x="270" y="300" />
              <mxPoint x="150" y="300" />
            </Array>
          </mxGeometry>
        </mxCell>
        <mxCell id="yPmtyfdiCLfHRMUGOkqY-5" value="遍历主题和阶段，获取规则数据" style="strokeWidth=2;html=1;shape=mxgraph.flowchart.terminator;whiteSpace=wrap;" vertex="1" parent="1">
          <mxGeometry x="100" y="170" width="100" height="60" as="geometry" />
        </mxCell>
        <mxCell id="yPmtyfdiCLfHRMUGOkqY-6" value="" style="edgeStyle=orthogonalEdgeStyle;rounded=0;orthogonalLoop=1;jettySize=auto;html=1;" edge="1" parent="1" source="yPmtyfdiCLfHRMUGOkqY-7" target="yPmtyfdiCLfHRMUGOkqY-11">
          <mxGeometry relative="1" as="geometry">
            <Array as="points">
              <mxPoint x="270" y="200" />
              <mxPoint x="270" y="300" />
              <mxPoint x="370" y="300" />
            </Array>
          </mxGeometry>
        </mxCell>
        <mxCell id="yPmtyfdiCLfHRMUGOkqY-7" value="获取客户跟进数据" style="strokeWidth=2;html=1;shape=mxgraph.flowchart.terminator;whiteSpace=wrap;" vertex="1" parent="1">
          <mxGeometry x="320" y="170" width="100" height="60" as="geometry" />
        </mxCell>
        <mxCell id="yPmtyfdiCLfHRMUGOkqY-8" value="根据主题和阶段" style="text;html=1;resizable=0;autosize=1;align=center;verticalAlign=middle;points=[];fillColor=none;strokeColor=none;rounded=0;" vertex="1" parent="1">
          <mxGeometry x="220" y="170" width="100" height="20" as="geometry" />
        </mxCell>
        <mxCell id="yPmtyfdiCLfHRMUGOkqY-9" value="写入task" style="strokeWidth=2;html=1;shape=mxgraph.flowchart.terminator;whiteSpace=wrap;" vertex="1" parent="1">
          <mxGeometry x="100" y="310" width="100" height="60" as="geometry" />
        </mxCell>
        <mxCell id="yPmtyfdiCLfHRMUGOkqY-10" value="根据跟进时间、当天时间、规则计算出提醒时间" style="text;html=1;resizable=0;autosize=1;align=center;verticalAlign=middle;points=[];fillColor=none;strokeColor=none;rounded=0;" vertex="1" parent="1">
          <mxGeometry y="280" width="270" height="20" as="geometry" />
        </mxCell>
        <mxCell id="yPmtyfdiCLfHRMUGOkqY-11" value="写入当天的客户跟进记录" style="strokeWidth=2;html=1;shape=mxgraph.flowchart.terminator;whiteSpace=wrap;" vertex="1" parent="1">
          <mxGeometry x="320" y="310" width="100" height="60" as="geometry" />
        </mxCell>
        <mxCell id="yPmtyfdiCLfHRMUGOkqY-12" value="根据跟进时间，当天时间，规则计算出当天需要跟进的时间" style="text;html=1;resizable=0;autosize=1;align=center;verticalAlign=middle;points=[];fillColor=none;strokeColor=none;rounded=0;" vertex="1" parent="1">
          <mxGeometry x="310" y="280" width="330" height="20" as="geometry" />
        </mxCell>
        <mxCell id="yPmtyfdiCLfHRMUGOkqY-13" value="" style="edgeStyle=orthogonalEdgeStyle;rounded=0;orthogonalLoop=1;jettySize=auto;html=1;" edge="1" parent="1" source="yPmtyfdiCLfHRMUGOkqY-15" target="yPmtyfdiCLfHRMUGOkqY-23">
          <mxGeometry relative="1" as="geometry" />
        </mxCell>
        <mxCell id="yPmtyfdiCLfHRMUGOkqY-14" value="" style="edgeStyle=orthogonalEdgeStyle;rounded=0;orthogonalLoop=1;jettySize=auto;html=1;" edge="1" parent="1" source="yPmtyfdiCLfHRMUGOkqY-15" target="yPmtyfdiCLfHRMUGOkqY-18">
          <mxGeometry relative="1" as="geometry" />
        </mxCell>
        <mxCell id="yPmtyfdiCLfHRMUGOkqY-15" value="看板界面" style="strokeWidth=2;html=1;shape=mxgraph.flowchart.terminator;whiteSpace=wrap;" vertex="1" parent="1">
          <mxGeometry x="276.5" y="680" width="100" height="60" as="geometry" />
        </mxCell>
        <mxCell id="yPmtyfdiCLfHRMUGOkqY-16" style="edgeStyle=orthogonalEdgeStyle;rounded=0;orthogonalLoop=1;jettySize=auto;html=1;entryX=0;entryY=0.5;entryDx=0;entryDy=0;entryPerimeter=0;" edge="1" parent="1" source="yPmtyfdiCLfHRMUGOkqY-18" target="yPmtyfdiCLfHRMUGOkqY-34">
          <mxGeometry relative="1" as="geometry">
            <mxPoint x="720" y="640" as="targetPoint" />
          </mxGeometry>
        </mxCell>
        <mxCell id="yPmtyfdiCLfHRMUGOkqY-17" style="edgeStyle=orthogonalEdgeStyle;rounded=0;orthogonalLoop=1;jettySize=auto;html=1;exitX=0.89;exitY=0.89;exitDx=0;exitDy=0;exitPerimeter=0;entryX=0;entryY=0.5;entryDx=0;entryDy=0;entryPerimeter=0;" edge="1" parent="1" source="yPmtyfdiCLfHRMUGOkqY-18" target="yPmtyfdiCLfHRMUGOkqY-36">
          <mxGeometry relative="1" as="geometry" />
        </mxCell>
        <mxCell id="yPmtyfdiCLfHRMUGOkqY-18" value="详细信息" style="strokeWidth=2;html=1;shape=mxgraph.flowchart.terminator;whiteSpace=wrap;" vertex="1" parent="1">
          <mxGeometry x="530" y="680" width="100" height="60" as="geometry" />
        </mxCell>
        <mxCell id="yPmtyfdiCLfHRMUGOkqY-19" value="遍历所有商机主题，以商机主题和客户作为条件查找目前时间最接近的一条数据,查对应的阶段、意向" style="strokeWidth=2;html=1;shape=mxgraph.flowchart.terminator;whiteSpace=wrap;" vertex="1" parent="1">
          <mxGeometry x="970" y="605" width="130" height="90" as="geometry" />
        </mxCell>
        <mxCell id="yPmtyfdiCLfHRMUGOkqY-20" value="" style="edgeStyle=orthogonalEdgeStyle;rounded=0;orthogonalLoop=1;jettySize=auto;html=1;" edge="1" parent="1" source="yPmtyfdiCLfHRMUGOkqY-23" target="yPmtyfdiCLfHRMUGOkqY-29">
          <mxGeometry relative="1" as="geometry" />
        </mxCell>
        <mxCell id="yPmtyfdiCLfHRMUGOkqY-21" value="" style="edgeStyle=orthogonalEdgeStyle;rounded=0;orthogonalLoop=1;jettySize=auto;html=1;" edge="1" parent="1" source="yPmtyfdiCLfHRMUGOkqY-23" target="yPmtyfdiCLfHRMUGOkqY-26">
          <mxGeometry relative="1" as="geometry" />
        </mxCell>
        <mxCell id="yPmtyfdiCLfHRMUGOkqY-22" value="" style="edgeStyle=orthogonalEdgeStyle;rounded=0;orthogonalLoop=1;jettySize=auto;html=1;" edge="1" parent="1" source="yPmtyfdiCLfHRMUGOkqY-23" target="yPmtyfdiCLfHRMUGOkqY-24">
          <mxGeometry relative="1" as="geometry" />
        </mxCell>
        <mxCell id="yPmtyfdiCLfHRMUGOkqY-23" value="明天数据" style="strokeWidth=2;html=1;shape=mxgraph.flowchart.terminator;whiteSpace=wrap;" vertex="1" parent="1">
          <mxGeometry x="276.5" y="820" width="100" height="60" as="geometry" />
        </mxCell>
        <mxCell id="yPmtyfdiCLfHRMUGOkqY-24" value="根据查出的当日跟进记录，如果有下次跟进时间在明天的，以当日跟进记录数据作为基础，修改它的跟进时间，返回" style="strokeWidth=2;html=1;shape=mxgraph.flowchart.terminator;whiteSpace=wrap;" vertex="1" parent="1">
          <mxGeometry x="233" y="960" width="187" height="100" as="geometry" />
        </mxCell>
        <mxCell id="yPmtyfdiCLfHRMUGOkqY-25" value="" style="edgeStyle=orthogonalEdgeStyle;rounded=0;orthogonalLoop=1;jettySize=auto;html=1;" edge="1" parent="1" source="yPmtyfdiCLfHRMUGOkqY-26" target="yPmtyfdiCLfHRMUGOkqY-27">
          <mxGeometry relative="1" as="geometry" />
        </mxCell>
        <mxCell id="yPmtyfdiCLfHRMUGOkqY-26" value="过往数据" style="strokeWidth=2;html=1;shape=mxgraph.flowchart.terminator;whiteSpace=wrap;" vertex="1" parent="1">
          <mxGeometry x="456.5" y="820" width="100" height="60" as="geometry" />
        </mxCell>
        <mxCell id="yPmtyfdiCLfHRMUGOkqY-27" value="根据当天时间，过滤客户跟进记录并展示" style="strokeWidth=2;html=1;shape=mxgraph.flowchart.terminator;whiteSpace=wrap;" vertex="1" parent="1">
          <mxGeometry x="456.5" y="960" width="100" height="60" as="geometry" />
        </mxCell>
        <mxCell id="yPmtyfdiCLfHRMUGOkqY-28" value="" style="edgeStyle=orthogonalEdgeStyle;rounded=0;orthogonalLoop=1;jettySize=auto;html=1;" edge="1" parent="1" source="yPmtyfdiCLfHRMUGOkqY-29" target="yPmtyfdiCLfHRMUGOkqY-30">
          <mxGeometry relative="1" as="geometry" />
        </mxCell>
        <mxCell id="yPmtyfdiCLfHRMUGOkqY-29" value="今天数据" style="strokeWidth=2;html=1;shape=mxgraph.flowchart.terminator;whiteSpace=wrap;" vertex="1" parent="1">
          <mxGeometry x="96.5" y="820" width="100" height="60" as="geometry" />
        </mxCell>
        <mxCell id="yPmtyfdiCLfHRMUGOkqY-30" value="根据当天时间，过滤客户跟进记录表，以客户、商机主题、阶段分组，选择时间最小的展示，每组展示一条" style="strokeWidth=2;html=1;shape=mxgraph.flowchart.terminator;whiteSpace=wrap;" vertex="1" parent="1">
          <mxGeometry x="43.5" y="960" width="170" height="90" as="geometry" />
        </mxCell>
        <mxCell id="yPmtyfdiCLfHRMUGOkqY-31" value="&lt;b&gt;定点执行任务&lt;/b&gt;" style="text;html=1;resizable=0;autosize=1;align=center;verticalAlign=middle;points=[];fillColor=none;strokeColor=none;rounded=0;" vertex="1" parent="1">
          <mxGeometry x="150" y="20" width="90" height="20" as="geometry" />
        </mxCell>
        <mxCell id="yPmtyfdiCLfHRMUGOkqY-32" value="&lt;b&gt;客户看板&lt;/b&gt;" style="text;html=1;resizable=0;autosize=1;align=center;verticalAlign=middle;points=[];fillColor=none;strokeColor=none;rounded=0;" vertex="1" parent="1">
          <mxGeometry x="246.5" y="650" width="60" height="20" as="geometry" />
        </mxCell>
        <mxCell id="yPmtyfdiCLfHRMUGOkqY-33" style="edgeStyle=orthogonalEdgeStyle;rounded=0;orthogonalLoop=1;jettySize=auto;html=1;exitX=1;exitY=0.5;exitDx=0;exitDy=0;exitPerimeter=0;entryX=0;entryY=0.5;entryDx=0;entryDy=0;entryPerimeter=0;" edge="1" parent="1" source="yPmtyfdiCLfHRMUGOkqY-34" target="yPmtyfdiCLfHRMUGOkqY-19">
          <mxGeometry relative="1" as="geometry" />
        </mxCell>
        <mxCell id="yPmtyfdiCLfHRMUGOkqY-34" value="客户跟进数据" style="strokeWidth=2;html=1;shape=mxgraph.flowchart.terminator;whiteSpace=wrap;" vertex="1" parent="1">
          <mxGeometry x="750" y="620" width="100" height="60" as="geometry" />
        </mxCell>
        <mxCell id="yPmtyfdiCLfHRMUGOkqY-35" value="" style="edgeStyle=orthogonalEdgeStyle;rounded=0;orthogonalLoop=1;jettySize=auto;html=1;" edge="1" parent="1" source="yPmtyfdiCLfHRMUGOkqY-36" target="yPmtyfdiCLfHRMUGOkqY-37">
          <mxGeometry relative="1" as="geometry" />
        </mxCell>
        <mxCell id="yPmtyfdiCLfHRMUGOkqY-36" value="客户基本信息" style="strokeWidth=2;html=1;shape=mxgraph.flowchart.terminator;whiteSpace=wrap;" vertex="1" parent="1">
          <mxGeometry x="743.5" y="730" width="100" height="60" as="geometry" />
        </mxCell>
        <mxCell id="yPmtyfdiCLfHRMUGOkqY-37" value="标签/tag" style="strokeWidth=2;html=1;shape=mxgraph.flowchart.terminator;whiteSpace=wrap;" vertex="1" parent="1">
          <mxGeometry x="957" y="730" width="100" height="60" as="geometry" />
        </mxCell>
        <mxCell id="yPmtyfdiCLfHRMUGOkqY-38" value="" style="edgeStyle=orthogonalEdgeStyle;rounded=0;orthogonalLoop=1;jettySize=auto;html=1;" edge="1" parent="1" source="yPmtyfdiCLfHRMUGOkqY-39" target="yPmtyfdiCLfHRMUGOkqY-41">
          <mxGeometry relative="1" as="geometry" />
        </mxCell>
        <mxCell id="yPmtyfdiCLfHRMUGOkqY-39" value="每1分钟/半分钟轮询查task表" style="strokeWidth=2;html=1;shape=mxgraph.flowchart.terminator;whiteSpace=wrap;" vertex="1" parent="1">
          <mxGeometry x="820" y="50" width="100" height="60" as="geometry" />
        </mxCell>
        <mxCell id="yPmtyfdiCLfHRMUGOkqY-40" value="" style="edgeStyle=orthogonalEdgeStyle;rounded=0;orthogonalLoop=1;jettySize=auto;html=1;" edge="1" parent="1" source="yPmtyfdiCLfHRMUGOkqY-41">
          <mxGeometry relative="1" as="geometry">
            <mxPoint x="869.9999999999991" y="240" as="targetPoint" />
          </mxGeometry>
        </mxCell>
        <mxCell id="yPmtyfdiCLfHRMUGOkqY-41" value="拿出taskTime，执行提醒逻辑" style="strokeWidth=2;html=1;shape=mxgraph.flowchart.terminator;whiteSpace=wrap;" vertex="1" parent="1">
          <mxGeometry x="820" y="140" width="100" height="60" as="geometry" />
        </mxCell>
        <mxCell id="yPmtyfdiCLfHRMUGOkqY-42" value="" style="edgeStyle=orthogonalEdgeStyle;rounded=0;orthogonalLoop=1;jettySize=auto;html=1;" edge="1" parent="1" source="yPmtyfdiCLfHRMUGOkqY-44">
          <mxGeometry relative="1" as="geometry">
            <mxPoint x="869.9999999999991" y="370" as="targetPoint" />
          </mxGeometry>
        </mxCell>
        <mxCell id="yPmtyfdiCLfHRMUGOkqY-43" value="" style="edgeStyle=orthogonalEdgeStyle;rounded=0;orthogonalLoop=1;jettySize=auto;html=1;" edge="1" parent="1" source="yPmtyfdiCLfHRMUGOkqY-44">
          <mxGeometry relative="1" as="geometry">
            <mxPoint x="995.0000000000009" y="275" as="targetPoint" />
          </mxGeometry>
        </mxCell>
        <mxCell id="yPmtyfdiCLfHRMUGOkqY-44" value="任务执行成功" style="strokeWidth=2;html=1;shape=mxgraph.flowchart.decision;whiteSpace=wrap;" vertex="1" parent="1">
          <mxGeometry x="825" y="240" width="90" height="70" as="geometry" />
        </mxCell>
        <mxCell id="yPmtyfdiCLfHRMUGOkqY-45" value="修改任务状态；更新客户跟进表及客户跟进记录表" style="strokeWidth=2;html=1;shape=mxgraph.flowchart.terminator;whiteSpace=wrap;" vertex="1" parent="1">
          <mxGeometry x="780" y="370" width="180" height="90" as="geometry" />
        </mxCell>
        <mxCell id="yPmtyfdiCLfHRMUGOkqY-46" value="提醒/告警？" style="strokeWidth=2;html=1;shape=mxgraph.flowchart.terminator;whiteSpace=wrap;fillColor=#ffe6cc;strokeColor=#d79b00;" vertex="1" parent="1">
          <mxGeometry x="1000" y="245" width="100" height="60" as="geometry" />
        </mxCell>
        <mxCell id="yPmtyfdiCLfHRMUGOkqY-47" value="是" style="text;html=1;resizable=0;autosize=1;align=center;verticalAlign=middle;points=[];fillColor=none;strokeColor=none;rounded=0;" vertex="1" parent="1">
          <mxGeometry x="880" y="330" width="30" height="20" as="geometry" />
        </mxCell>
        <mxCell id="yPmtyfdiCLfHRMUGOkqY-48" value="否" style="text;html=1;resizable=0;autosize=1;align=center;verticalAlign=middle;points=[];fillColor=none;strokeColor=none;rounded=0;" vertex="1" parent="1">
          <mxGeometry x="930" y="240" width="30" height="20" as="geometry" />
        </mxCell>
        <mxCell id="yPmtyfdiCLfHRMUGOkqY-49" value="" style="edgeStyle=orthogonalEdgeStyle;rounded=0;orthogonalLoop=1;jettySize=auto;html=1;" edge="1" parent="1" source="yPmtyfdiCLfHRMUGOkqY-50" target="yPmtyfdiCLfHRMUGOkqY-51">
          <mxGeometry relative="1" as="geometry" />
        </mxCell>
        <mxCell id="yPmtyfdiCLfHRMUGOkqY-50" value="新增客户跟进" style="strokeWidth=2;html=1;shape=mxgraph.flowchart.terminator;whiteSpace=wrap;" vertex="1" parent="1">
          <mxGeometry x="-850" y="80" width="100" height="60" as="geometry" />
        </mxCell>
        <mxCell id="yPmtyfdiCLfHRMUGOkqY-51" value="1.跟据主题和阶段查规则。&lt;br&gt;2.跟据规则和当前时间，选择离当前时间最近的规则时间作为跟进时间。跟据重复天数计算下次提醒时间。&lt;br&gt;3.跟据当前时间和规则时间，把从当前时间到今天完的所有提醒任务写到task表中。&lt;br&gt;4.再给跟进记录表中添加对应的跟进记录。" style="strokeWidth=2;html=1;shape=mxgraph.flowchart.terminator;whiteSpace=wrap;align=left;" vertex="1" parent="1">
          <mxGeometry x="-947" y="190" width="295" height="130" as="geometry" />
        </mxCell>
        <mxCell id="yPmtyfdiCLfHRMUGOkqY-52" value="&lt;b&gt;客户跟进&lt;/b&gt;" style="text;html=1;resizable=0;points=[];autosize=1;align=left;verticalAlign=top;spacingTop=-4;" vertex="1" parent="1">
          <mxGeometry x="-850" y="50" width="60" height="20" as="geometry" />
        </mxCell>
        <mxCell id="yPmtyfdiCLfHRMUGOkqY-53" value="" style="edgeStyle=orthogonalEdgeStyle;rounded=0;orthogonalLoop=1;jettySize=auto;html=1;" edge="1" parent="1" source="yPmtyfdiCLfHRMUGOkqY-54" target="yPmtyfdiCLfHRMUGOkqY-55">
          <mxGeometry relative="1" as="geometry" />
        </mxCell>
        <mxCell id="yPmtyfdiCLfHRMUGOkqY-54" value="修改客户跟进时间" style="strokeWidth=2;html=1;shape=mxgraph.flowchart.terminator;whiteSpace=wrap;" vertex="1" parent="1">
          <mxGeometry x="-464" y="80" width="100" height="60" as="geometry" />
        </mxCell>
        <mxCell id="yPmtyfdiCLfHRMUGOkqY-55" value="1.修改客户跟进时间后删除task中多余的数据&lt;br&gt;2.删除多余的客户记录&lt;br&gt;3.新增修改后的跟进时间到task，和跟进记录&lt;br&gt;4.修改客户跟进状态字段，表示不受规则限制&lt;br&gt;5.修改跟进时间后，这条跟进不受规则限制，在修改的跟进时间跟进完后的第二天开始再走规则。（&lt;b&gt;增加字段，表示是修改后的客户跟进&lt;/b&gt;）" style="strokeWidth=2;html=1;shape=mxgraph.flowchart.terminator;whiteSpace=wrap;align=left;" vertex="1" parent="1">
          <mxGeometry x="-575" y="173" width="330" height="188" as="geometry" />
        </mxCell>
        <mxCell id="yPmtyfdiCLfHRMUGOkqY-56" style="edgeStyle=orthogonalEdgeStyle;rounded=0;orthogonalLoop=1;jettySize=auto;html=1;exitX=0.5;exitY=1;exitDx=0;exitDy=0;exitPerimeter=0;entryX=0.5;entryY=0;entryDx=0;entryDy=0;entryPerimeter=0;" edge="1" parent="1" source="yPmtyfdiCLfHRMUGOkqY-59" target="yPmtyfdiCLfHRMUGOkqY-75">
          <mxGeometry relative="1" as="geometry">
            <Array as="points">
              <mxPoint x="-810" y="640" />
              <mxPoint x="-910" y="640" />
            </Array>
          </mxGeometry>
        </mxCell>
        <mxCell id="yPmtyfdiCLfHRMUGOkqY-57" style="edgeStyle=orthogonalEdgeStyle;rounded=0;orthogonalLoop=1;jettySize=auto;html=1;exitX=0.11;exitY=0.89;exitDx=0;exitDy=0;exitPerimeter=0;entryX=0.5;entryY=0;entryDx=0;entryDy=0;entryPerimeter=0;" edge="1" parent="1" source="yPmtyfdiCLfHRMUGOkqY-59" target="yPmtyfdiCLfHRMUGOkqY-73">
          <mxGeometry relative="1" as="geometry" />
        </mxCell>
        <mxCell id="yPmtyfdiCLfHRMUGOkqY-58" style="edgeStyle=orthogonalEdgeStyle;rounded=0;orthogonalLoop=1;jettySize=auto;html=1;exitX=0.89;exitY=0.89;exitDx=0;exitDy=0;exitPerimeter=0;" edge="1" parent="1" source="yPmtyfdiCLfHRMUGOkqY-59" target="yPmtyfdiCLfHRMUGOkqY-77">
          <mxGeometry relative="1" as="geometry" />
        </mxCell>
        <mxCell id="yPmtyfdiCLfHRMUGOkqY-59" value="增删改规则" style="strokeWidth=2;html=1;shape=mxgraph.flowchart.terminator;whiteSpace=wrap;rounded=1;fillColor=#ffe6cc;strokeColor=#d79b00;" vertex="1" parent="1">
          <mxGeometry x="-860" y="560" width="100" height="60" as="geometry" />
        </mxCell>
        <mxCell id="yPmtyfdiCLfHRMUGOkqY-60" value="&lt;br&gt;&lt;u&gt;2.删除task中所有该规则对应的数据&lt;br&gt;3.删除跟进记录中和该规则匹配的数据&lt;/u&gt;" style="strokeWidth=2;html=1;shape=mxgraph.flowchart.terminator;whiteSpace=wrap;rounded=1;align=left;" vertex="1" parent="1">
          <mxGeometry x="-1019" y="830" width="210" height="120" as="geometry" />
        </mxCell>
        <mxCell id="yPmtyfdiCLfHRMUGOkqY-61" value="" style="edgeStyle=orthogonalEdgeStyle;rounded=0;orthogonalLoop=1;jettySize=auto;html=1;" edge="1" parent="1" source="yPmtyfdiCLfHRMUGOkqY-63" target="yPmtyfdiCLfHRMUGOkqY-70">
          <mxGeometry relative="1" as="geometry" />
        </mxCell>
        <mxCell id="yPmtyfdiCLfHRMUGOkqY-62" value="" style="edgeStyle=orthogonalEdgeStyle;rounded=0;orthogonalLoop=1;jettySize=auto;html=1;" edge="1" parent="1" source="yPmtyfdiCLfHRMUGOkqY-63" target="yPmtyfdiCLfHRMUGOkqY-65">
          <mxGeometry relative="1" as="geometry" />
        </mxCell>
        <mxCell id="yPmtyfdiCLfHRMUGOkqY-63" value="增删改商机阶段" style="strokeWidth=2;html=1;shape=mxgraph.flowchart.terminator;whiteSpace=wrap;rounded=1;fillColor=#ffe6cc;strokeColor=#d79b00;" vertex="1" parent="1">
          <mxGeometry x="-510" y="560" width="100" height="60" as="geometry" />
        </mxCell>
        <mxCell id="yPmtyfdiCLfHRMUGOkqY-64" value="" style="edgeStyle=orthogonalEdgeStyle;rounded=0;orthogonalLoop=1;jettySize=auto;html=1;" edge="1" parent="1" source="yPmtyfdiCLfHRMUGOkqY-65" target="yPmtyfdiCLfHRMUGOkqY-67">
          <mxGeometry relative="1" as="geometry" />
        </mxCell>
        <mxCell id="yPmtyfdiCLfHRMUGOkqY-65" value="删" style="strokeWidth=2;html=1;shape=mxgraph.flowchart.terminator;whiteSpace=wrap;rounded=1;" vertex="1" parent="1">
          <mxGeometry x="-330" y="560" width="100" height="60" as="geometry" />
        </mxCell>
        <mxCell id="yPmtyfdiCLfHRMUGOkqY-66" style="edgeStyle=orthogonalEdgeStyle;rounded=0;orthogonalLoop=1;jettySize=auto;html=1;exitX=0.11;exitY=0.11;exitDx=0;exitDy=0;exitPerimeter=0;entryX=0.5;entryY=0;entryDx=0;entryDy=0;entryPerimeter=0;" edge="1" parent="1" source="yPmtyfdiCLfHRMUGOkqY-67" target="yPmtyfdiCLfHRMUGOkqY-59">
          <mxGeometry relative="1" as="geometry">
            <Array as="points">
              <mxPoint x="-139" y="540" />
              <mxPoint x="-810" y="540" />
            </Array>
          </mxGeometry>
        </mxCell>
        <mxCell id="yPmtyfdiCLfHRMUGOkqY-67" value="跟据商机主题和商机阶段，计算所有的跟进规则" style="strokeWidth=2;html=1;shape=mxgraph.flowchart.terminator;whiteSpace=wrap;rounded=1;" vertex="1" parent="1">
          <mxGeometry x="-150" y="560" width="100" height="60" as="geometry" />
        </mxCell>
        <mxCell id="yPmtyfdiCLfHRMUGOkqY-68" style="edgeStyle=orthogonalEdgeStyle;rounded=0;orthogonalLoop=1;jettySize=auto;html=1;exitX=0;exitY=0.5;exitDx=0;exitDy=0;exitPerimeter=0;entryX=1;entryY=0.667;entryDx=0;entryDy=0;entryPerimeter=0;" edge="1" parent="1" source="yPmtyfdiCLfHRMUGOkqY-71" target="yPmtyfdiCLfHRMUGOkqY-59">
          <mxGeometry relative="1" as="geometry">
            <Array as="points">
              <mxPoint x="-612" y="800" />
              <mxPoint x="-612" y="590" />
              <mxPoint x="-760" y="590" />
            </Array>
          </mxGeometry>
        </mxCell>
        <mxCell id="yPmtyfdiCLfHRMUGOkqY-69" value="" style="edgeStyle=orthogonalEdgeStyle;rounded=0;orthogonalLoop=1;jettySize=auto;html=1;" edge="1" parent="1" source="yPmtyfdiCLfHRMUGOkqY-70" target="yPmtyfdiCLfHRMUGOkqY-71">
          <mxGeometry relative="1" as="geometry" />
        </mxCell>
        <mxCell id="yPmtyfdiCLfHRMUGOkqY-70" value="增加商机阶段" style="strokeWidth=2;html=1;shape=mxgraph.flowchart.terminator;whiteSpace=wrap;rounded=1;" vertex="1" parent="1">
          <mxGeometry x="-510" y="670" width="100" height="60" as="geometry" />
        </mxCell>
        <mxCell id="yPmtyfdiCLfHRMUGOkqY-71" value="增加规则（是否有默认规则？）" style="strokeWidth=2;html=1;shape=mxgraph.flowchart.terminator;whiteSpace=wrap;rounded=1;fillColor=#f8cecc;strokeColor=#b85450;" vertex="1" parent="1">
          <mxGeometry x="-510" y="770" width="100" height="60" as="geometry" />
        </mxCell>
        <mxCell id="yPmtyfdiCLfHRMUGOkqY-72" style="edgeStyle=orthogonalEdgeStyle;rounded=0;orthogonalLoop=1;jettySize=auto;html=1;exitX=0.5;exitY=1;exitDx=0;exitDy=0;exitPerimeter=0;entryX=0.476;entryY=-0.012;entryDx=0;entryDy=0;entryPerimeter=0;" edge="1" parent="1" source="yPmtyfdiCLfHRMUGOkqY-73" target="yPmtyfdiCLfHRMUGOkqY-81">
          <mxGeometry relative="1" as="geometry" />
        </mxCell>
        <mxCell id="yPmtyfdiCLfHRMUGOkqY-73" value="增加规则" style="strokeWidth=2;html=1;shape=mxgraph.flowchart.terminator;whiteSpace=wrap;rounded=1;" vertex="1" parent="1">
          <mxGeometry x="-1150" y="650" width="100" height="60" as="geometry" />
        </mxCell>
        <mxCell id="yPmtyfdiCLfHRMUGOkqY-74" style="edgeStyle=orthogonalEdgeStyle;rounded=0;orthogonalLoop=1;jettySize=auto;html=1;exitX=0.5;exitY=1;exitDx=0;exitDy=0;exitPerimeter=0;" edge="1" parent="1" source="yPmtyfdiCLfHRMUGOkqY-75">
          <mxGeometry relative="1" as="geometry">
            <mxPoint x="-910" y="830" as="targetPoint" />
          </mxGeometry>
        </mxCell>
        <mxCell id="yPmtyfdiCLfHRMUGOkqY-75" value="删除规则" style="strokeWidth=2;html=1;shape=mxgraph.flowchart.terminator;whiteSpace=wrap;rounded=1;" vertex="1" parent="1">
          <mxGeometry x="-960" y="650" width="100" height="60" as="geometry" />
        </mxCell>
        <mxCell id="yPmtyfdiCLfHRMUGOkqY-76" style="edgeStyle=orthogonalEdgeStyle;rounded=0;orthogonalLoop=1;jettySize=auto;html=1;exitX=0.5;exitY=1;exitDx=0;exitDy=0;exitPerimeter=0;entryX=0.433;entryY=-0.014;entryDx=0;entryDy=0;entryPerimeter=0;" edge="1" parent="1" source="yPmtyfdiCLfHRMUGOkqY-77" target="yPmtyfdiCLfHRMUGOkqY-80">
          <mxGeometry relative="1" as="geometry" />
        </mxCell>
        <mxCell id="yPmtyfdiCLfHRMUGOkqY-77" value="修改规则" style="strokeWidth=2;html=1;shape=mxgraph.flowchart.terminator;whiteSpace=wrap;rounded=1;" vertex="1" parent="1">
          <mxGeometry x="-770" y="650" width="100" height="60" as="geometry" />
        </mxCell>
        <mxCell id="yPmtyfdiCLfHRMUGOkqY-78" value="&lt;b style=&quot;white-space: normal&quot;&gt;&lt;br&gt;&lt;/b&gt;" style="text;html=1;resizable=0;points=[];autosize=1;align=left;verticalAlign=top;spacingTop=-4;" vertex="1" parent="1">
          <mxGeometry x="-750" y="910" width="20" height="20" as="geometry" />
        </mxCell>
        <mxCell id="yPmtyfdiCLfHRMUGOkqY-79" value="&lt;b&gt;增加字段和规则关联&lt;/b&gt;" style="text;html=1;resizable=0;points=[];autosize=1;align=left;verticalAlign=top;spacingTop=-4;" vertex="1" parent="1">
          <mxGeometry x="-870" y="740" width="120" height="20" as="geometry" />
        </mxCell>
        <mxCell id="yPmtyfdiCLfHRMUGOkqY-80" value="1.删除task所有该规则对应的行&lt;br&gt;2.删除所有客户跟进对应数据&lt;br&gt;3.根据商机主题、阶段、客户查找对应跟进，&lt;br&gt;4.根据规则和第3的信息生成客户跟进记录及task" style="strokeWidth=2;html=1;shape=mxgraph.flowchart.terminator;whiteSpace=wrap;rounded=1;align=left;" vertex="1" parent="1">
          <mxGeometry x="-770" y="900" width="270" height="140" as="geometry" />
        </mxCell>
        <mxCell id="yPmtyfdiCLfHRMUGOkqY-81" value="1.根据主题，阶段，查找跟进表&lt;br&gt;2.根据跟进和规则创建task任务，以及跟进记录" style="strokeWidth=2;html=1;shape=mxgraph.flowchart.terminator;whiteSpace=wrap;rounded=1;align=left;" vertex="1" parent="1">
          <mxGeometry x="-1290" y="840" width="200" height="100" as="geometry" />
        </mxCell>
        <mxCell id="yPmtyfdiCLfHRMUGOkqY-82" value="" style="edgeStyle=orthogonalEdgeStyle;rounded=0;orthogonalLoop=1;jettySize=auto;html=1;" edge="1" parent="1" source="yPmtyfdiCLfHRMUGOkqY-83" target="yPmtyfdiCLfHRMUGOkqY-84">
          <mxGeometry relative="1" as="geometry" />
        </mxCell>
        <mxCell id="yPmtyfdiCLfHRMUGOkqY-83" value="跟进完成/异常" style="strokeWidth=2;html=1;shape=mxgraph.flowchart.terminator;whiteSpace=wrap;rounded=1;" vertex="1" parent="1">
          <mxGeometry x="-1183.5" y="110" width="100" height="60" as="geometry" />
        </mxCell>
        <mxCell id="yPmtyfdiCLfHRMUGOkqY-84" value="1.修改客户跟进表状态&lt;br&gt;2.删除多余的task任务&lt;br&gt;3.删除多余的客户跟进" style="strokeWidth=2;html=1;shape=mxgraph.flowchart.terminator;whiteSpace=wrap;rounded=1;align=left;" vertex="1" parent="1">
          <mxGeometry x="-1200" y="220" width="135" height="100" as="geometry" />
        </mxCell>
      </root>
    </mxGraphModel>
  </diagram>
</mxfile>
